<?xml version="1.0" standalone="no"?>
<!DOCTYPE svg PUBLIC "-//W3C//DTD SVG 20010904//EN"
 "http://www.w3.org/TR/2001/REC-SVG-20010904/DTD/svg10.dtd">
<svg version="1.0" xmlns="http://www.w3.org/2000/svg"
 width="300.000000pt" height="300.000000pt" viewBox="0 0 300.000000 300.000000"
 preserveAspectRatio="xMidYMid meet">
<metadata>
Created by potrace 1.14, written by Peter Selinger 2001-2017
</metadata>
<g transform="translate(0.000000,300.000000) scale(0.100000,-0.100000)"
fill="#000000" stroke="none">
<path d="M56 2932 c-7 -14 -2 -1962 6 -1962 4 0 8 -8 8 -17 0 -9 3 -14 6 -10
6 5 49 -29 106 -85 15 -16 30 -28 32 -28 3 0 20 -15 39 -32 46 -46 147 -136
147 -133 0 2 19 -16 43 -38 24 -23 72 -67 107 -97 34 -30 76 -68 91 -84 16
-16 29 -27 29 -24 0 3 19 -13 43 -36 24 -22 74 -68 111 -101 37 -33 90 -81
117 -107 27 -26 49 -44 49 -40 0 3 5 1 12 -6 6 -6 12 -29 12 -49 l1 -38 410 0
410 1 0 254 0 255 167 1 c92 1 173 5 180 10 7 6 39 9 71 8 33 -2 57 2 57 7 0
6 16 9 35 8 19 -2 40 2 46 8 6 6 18 9 27 6 9 -4 13 -2 9 4 -7 10 45 28 71 24
6 -1 12 2 12 7 0 6 12 13 27 17 15 3 39 15 54 25 14 11 29 17 33 13 3 -3 6 -1
6 5 0 6 15 18 33 27 35 17 167 144 167 161 0 3 11 20 25 38 14 18 25 38 25 44
0 7 5 12 11 12 6 0 9 9 6 19 -3 12 1 22 10 25 8 3 13 12 11 18 -3 7 1 23 8 36
7 14 10 31 7 38 -3 8 0 14 6 14 8 0 11 61 11 205 -1 139 -4 205 -12 205 -6 0
-8 11 -6 25 3 14 -1 30 -8 36 -8 6 -12 15 -9 19 3 5 1 11 -5 15 -5 3 -10 16
-10 28 0 12 -9 28 -21 35 -12 7 -18 16 -15 19 3 3 -9 19 -27 34 -17 16 -28 29
-24 29 5 0 -3 10 -18 23 -15 12 -36 32 -48 45 -11 12 -30 22 -42 22 -12 0 -45
22 -74 50 -29 28 -55 50 -57 50 -4 0 -73 63 -179 165 -29 28 -61 55 -71 62
-11 6 -18 16 -16 22 2 10 -12 15 -31 12 -5 -1 -6 3 -3 8 3 5 -6 16 -20 26 -14
9 -50 40 -80 69 -30 30 -54 51 -54 47 0 -3 -11 6 -24 22 -13 15 -28 27 -35 27
-6 0 -11 7 -11 17 0 9 -3 14 -6 11 -3 -3 -15 4 -28 16 -92 88 -147 136 -157
136 -5 0 -7 5 -4 10 3 6 1 10 -5 10 -6 0 -26 15 -45 33 -73 69 -105 96 -105
89 0 -4 -4 -2 -8 4 -14 20 -79 64 -85 57 -4 -3 -7 -1 -7 6 0 7 -4 10 -9 7 -5
-3 -14 1 -21 9 -7 8 -27 17 -46 21 -19 3 -34 11 -34 16 0 6 -7 7 -15 4 -9 -3
-18 0 -21 7 -2 7 -18 12 -34 11 -17 -1 -30 3 -30 8 0 6 -9 8 -20 5 -11 -3 -20
0 -20 6 0 6 -3 7 -7 4 -3 -4 -13 -1 -21 6 -13 10 -14 9 -8 -1 7 -11 4 -12 -13
-3 -12 7 -26 9 -31 6 -5 -3 -11 -1 -14 3 -6 10 -1194 14 -1200 4z m2732 -1167
c-3 -3 -9 2 -12 12 -6 14 -5 15 5 6 7 -7 10 -15 7 -18z m82 -99 c0 -3 -4 -8
-10 -11 -5 -3 -10 -1 -10 4 0 6 5 11 10 11 6 0 10 -2 10 -4z m37 -92 c-3 -3
-12 -4 -19 -1 -8 3 -5 6 6 6 11 1 17 -2 13 -5z m8 -62 c-3 -3 -11 0 -18 7 -9
10 -8 11 6 5 10 -3 15 -9 12 -12z m-8 -44 c-3 -7 -5 -2 -5 12 0 14 2 19 5 13
2 -7 2 -19 0 -25z m9 -277 c0 -11 -5 -17 -13 -14 -10 4 -11 9 -2 19 15 18 15
18 15 -5z m-45 -124 c-10 -9 -11 -8 -5 6 3 10 9 15 12 12 3 -3 0 -11 -7 -18z
m-18 -52 c-3 -9 -8 -14 -10 -11 -3 3 -2 9 2 15 9 16 15 13 8 -4z m-32 -48
c-10 -9 -11 -8 -5 6 3 10 9 15 12 12 3 -3 0 -11 -7 -18z m-51 -81 c0 -3 -4 -8
-10 -11 -5 -3 -10 -1 -10 4 0 6 5 11 10 11 6 0 10 -2 10 -4z m-45 -36 c-10
-11 -22 -20 -27 -20 -10 0 24 38 36 39 5 1 1 -8 -9 -19z m-107 -84 c-7 -8 -15
-12 -17 -11 -5 6 10 25 20 25 5 0 4 -6 -3 -14z m-258 -112 c0 -2 -7 -4 -15 -4
-8 0 -15 4 -15 10 0 5 7 7 15 4 8 -4 15 -8 15 -10z m-532 -39 c-3 -3 -9 2 -12
12 -6 14 -5 15 5 6 7 -7 10 -15 7 -18z m67 15 c-3 -5 -12 -10 -18 -10 -7 0 -6
4 3 10 19 12 23 12 15 0z m155 -5 c0 -2 -9 -3 -19 -2 -11 0 -18 5 -15 9 4 6
34 0 34 -7z m84 -4 c4 -5 -3 -7 -14 -4 -23 6 -26 13 -6 13 8 0 17 -4 20 -9z
m-324 -295 c0 -2 -7 -7 -16 -10 -8 -3 -12 -2 -9 4 6 10 25 14 25 6z m-5 -205
c-9 -8 -36 -10 -30 -2 2 4 11 8 20 8 8 0 13 -3 10 -6z"/>
</g>
</svg>
