<?xml version="1.0" standalone="no"?>
<!DOCTYPE svg PUBLIC "-//W3C//DTD SVG 20010904//EN"
 "http://www.w3.org/TR/2001/REC-SVG-20010904/DTD/svg10.dtd">
<svg version="1.0" xmlns="http://www.w3.org/2000/svg"
 width="517.000000pt" height="517.000000pt" viewBox="0 0 517.000000 517.000000"
 preserveAspectRatio="xMidYMid meet">
<metadata>
Created by potrace 1.14, written by Peter Selinger 2001-2017
</metadata>
<g transform="translate(0.000000,517.000000) scale(0.100000,-0.100000)"
fill="#000000" stroke="none">
<path d="M2409 5166 c-2 -2 -38 -6 -79 -9 -78 -6 -88 -7 -205 -33 -132 -28
-240 -57 -249 -65 -6 -5 -20 -9 -33 -9 -13 0 -23 -4 -23 -8 0 -4 -24 -16 -52
-27 -118 -41 -438 -216 -468 -254 -3 -4 -25 -22 -50 -41 -90 -69 -340 -345
-340 -375 0 -4 -9 -20 -21 -36 -41 -58 -195 -371 -197 -402 -1 -1 -6 -15 -13
-32 -16 -41 -56 -185 -73 -265 -25 -113 -31 -190 -30 -370 0 -186 11 -249 69
-413 25 -68 101 -227 113 -237 4 -3 13 -16 20 -30 7 -14 42 -59 77 -100 36
-41 73 -84 82 -96 76 -90 336 -246 481 -289 l22 -6 0 -1035 0 -1034 1365 0
c751 0 1365 2 1365 5 0 3 -23 50 -51 103 -29 53 -76 144 -107 202 -30 58 -76
146 -102 195 -26 50 -76 144 -110 210 -35 66 -80 152 -100 190 -20 39 -75 142
-120 230 -46 88 -94 175 -106 194 l-23 35 112 59 c103 54 141 77 267 164 118
81 295 286 407 472 18 29 33 55 33 56 0 2 20 38 45 79 25 42 45 80 45 84 0 4
11 24 25 44 52 77 135 308 171 479 2 13 9 44 14 69 5 25 12 56 15 70 16 76 20
130 20 270 -1 132 -9 252 -20 270 -2 3 -6 25 -9 50 -12 89 -154 478 -178 488
-4 2 -8 9 -8 14 0 15 -86 154 -127 205 -18 23 -33 45 -33 50 0 7 -23 27 -60
53 -4 3 -11 12 -16 21 -15 27 -95 119 -154 177 -47 46 -273 222 -390 302 -19
13 -37 27 -40 30 -26 28 -283 149 -373 175 -296 85 -435 110 -668 119 -64 3
-118 3 -120 2z"/>
</g>
</svg>
